# xmcd
#
# Track frame offsets:
#	182
#	15907
#	34282
#	52582
#	67207
#	85882
#	101107
#	116505
#	134782
#	146332
#	159082
#	176407
#	190357
#	206557
#	223282
#	239707
#	255457
#	269407
#	281257
#	291532
#	309157
#	326257
#	337732
#
# Disc length: 4674 seconds
#
# Revision: 1
# Processed by: cddbd v1.4PL0 Copyright (c) Steve Scherf et al.
# Submitted via: audiograbber 1.82.02
#
DISCID=54124017
DTITLE=Various Artist - Children Of The Outback 1994
DYEAR=1900
DGENRE=Country
TTITLE0=John Williamson - Boomerang Cafe
TTITLE1=Trisha Yearwood - She`s In Love With The Boy
TTITLE2=Graeme Connors - Dieseline Dreams
TTITLE3=Darcy LeYear - Children Of The Outback
TTITLE4=Norma O`Hara Murphy - Tamworth Song Norma
TTITLE5=Dead Ringer Band - Family Man
TTITLE6=Bushwackers - Lazy  Harry
TTITLE7=Grant Luhrs - I Come Home To You
TTITLE8=Reg Lindsay - Teach Your Children
TTITLE9=Reg Poole - Go`en Rdo`en Again
TTITLE10=Mark O`Shea - Old Heads On Young Shoulders
TTITLE11=Pixie - Cunamulla Fella
TTITLE12=Glen Jones - The Garage Sale
TTITLE13=Jimmy Little - Winter Woods
TTITLE14=Bruce McCumstie - Another Road
TTITLE15=Noelene Legge - Forever Hold Me True
TTITLE16=The Bourkenbacks - If He Sees Me With You
TTITLE17=Evelyn Bury - I`ll Get By
TTITLE18=Michael Gant - I`ve Got Yoy On The Telephone
TTITLE19=Clint Beattie - Forever From Now
TTITLE20=Shanley Del - Red Roses
TTITLE21=Jade Hurley - Susy Darling
TTITLE22=Jim Haynes - Indian Pacific
EXTD=
EXTT0=
EXTT1=
EXTT2=
EXTT3=
EXTT4=
EXTT5=
EXTT6=
EXTT7=
EXTT8=
EXTT9=
EXTT10=
EXTT11=
EXTT12=
EXTT13=
EXTT14=
EXTT15=
EXTT16=
EXTT17=
EXTT18=
EXTT19=
EXTT20=
EXTT21=
EXTT22=
PLAYORDER=
